<svg xmlns="http://www.w3.org/2000/svg" width="22" height="32" viewBox="0 0 22 32" fill="none">
  <path d="M2.40375 31.6667C1.75014 31.6667 1.18611 31.4294 0.711667 30.955C0.237222 30.4806 0 29.9165 0 29.2629V2.40375C0 1.75014 0.237222 1.18611 0.711667 0.711667C1.18611 0.237223 1.75014 0 2.40375 0H12.8429C13.169 0 13.4831 0.0591671 13.785 0.1775C14.0872 0.295834 14.349 0.4675 14.5704 0.6925L20.9646 7.14125C21.1763 7.36347 21.3461 7.61778 21.4742 7.90417C21.6025 8.19083 21.6667 8.50167 21.6667 8.83667V29.2629C21.6667 29.9165 21.4294 30.4806 20.955 30.955C20.4806 31.4294 19.9165 31.6667 19.2629 31.6667H2.40375ZM9.88792 1.89125H2.40375C2.25431 1.89125 2.13153 1.94194 2.03542 2.04333C1.93931 2.14472 1.89125 2.26486 1.89125 2.40375V29.2629C1.89125 29.4124 1.93931 29.5351 2.03542 29.6313C2.13153 29.7274 2.25431 29.7754 2.40375 29.7754H19.2629C19.4018 29.7754 19.5219 29.7274 19.6233 29.6313C19.7247 29.5351 19.7754 29.4124 19.7754 29.2629V11.83H14.1154C12.9357 11.83 11.9361 11.4126 11.1167 10.5779C10.2975 9.74292 9.88792 8.72972 9.88792 7.53833V1.89125ZM11.7788 1.89125V7.53833C11.7788 8.20861 12.0006 8.77639 12.4442 9.24167C12.8881 9.70667 13.4451 9.93917 14.1154 9.93917H19.7754V8.64417L13.0675 1.89125H11.7788ZM7.01917 25.9646C6.75083 25.9646 6.52611 25.8735 6.345 25.6912C6.16417 25.5087 6.07375 25.2822 6.07375 25.0117C6.07375 24.7411 6.16417 24.5171 6.345 24.3396C6.52611 24.1624 6.75083 24.0738 7.01917 24.0738H11.3492C11.6178 24.0738 11.8425 24.165 12.0233 24.3475C12.2044 24.5297 12.295 24.7561 12.295 25.0267C12.295 25.2972 12.2044 25.5212 12.0233 25.6987C11.8425 25.876 11.6178 25.9646 11.3492 25.9646H7.01917ZM7.01917 20.0833C6.75083 20.0833 6.52611 19.9921 6.345 19.8096C6.16417 19.6274 6.07375 19.401 6.07375 19.1304C6.07375 18.8596 6.16417 18.6356 6.345 18.4583C6.52611 18.2811 6.75083 18.1925 7.01917 18.1925H14.6313C14.8999 18.1925 15.1246 18.2836 15.3054 18.4658C15.4862 18.6483 15.5767 18.8749 15.5767 19.1454C15.5767 19.416 15.4862 19.6399 15.3054 19.8171C15.1246 19.9946 14.8999 20.0833 14.6313 20.0833H7.01917Z" fill="white"/>
</svg>