<svg xmlns="http://www.w3.org/2000/svg" width="20" height="21" viewBox="0 0 20 21" fill="none">
  <path d="M1.5 1.5V8.825V8.75V18.5V1.5ZM1.5 20C1.1 20 0.75 19.85 0.45 19.55C0.15 19.25 0 18.9 0 18.5V1.5C0 1.1 0.15 0.75 0.45 0.45C0.75 0.15 1.1 0 1.5 0H10.525L16 5.475V9.325C15.7667 9.20833 15.525 9.10833 15.275 9.025C15.025 8.94167 14.7667 8.875 14.5 8.825V6.15H9.775V1.5H1.5V18.5H9.375C9.70833 18.85 10.0792 19.15 10.4875 19.4C10.8958 19.65 11.3417 19.85 11.825 20H1.5ZM15.4625 16.4625C15.9875 15.9375 16.25 15.2833 16.25 14.5C16.25 13.7167 15.9875 13.0625 15.4625 12.5375C14.9375 12.0125 14.2833 11.75 13.5 11.75C12.7167 11.75 12.0625 12.0125 11.5375 12.5375C11.0125 13.0625 10.75 13.7167 10.75 14.5C10.75 15.2833 11.0125 15.9375 11.5375 16.4625C12.0625 16.9875 12.7167 17.25 13.5 17.25C14.2833 17.25 14.9375 16.9875 15.4625 16.4625ZM18.6 20.65L15.921 17.975C15.5737 18.2083 15.1958 18.3958 14.7875 18.5375C14.3792 18.6792 13.95 18.75 13.5 18.75C12.3195 18.75 11.316 18.3365 10.4895 17.5095C9.66317 16.6825 9.25 15.6783 9.25 14.497C9.25 13.3157 9.6635 12.3125 10.4905 11.4875C11.3175 10.6625 12.3217 10.25 13.503 10.25C14.6843 10.25 15.6875 10.6632 16.5125 11.4895C17.3375 12.316 17.75 13.3195 17.75 14.5C17.75 14.95 17.6792 15.3792 17.5375 15.7875C17.3958 16.1958 17.2083 16.5737 16.975 16.921L19.65 19.6L18.6 20.65Z" fill="white"/>
</svg>