<svg xmlns="http://www.w3.org/2000/svg" width="32" height="32" viewBox="0 0 32 32" fill="none">
  <path d="M11.8717 22.5163L26.9679 7.40375C26.5471 6.86764 26.0931 6.36708 25.6058 5.90208C25.1186 5.43736 24.6068 4.99458 24.0704 4.57375L10.3462 18.2821C10.4957 19.0512 10.6976 19.7831 10.9521 20.4775C11.2063 21.1719 11.5128 21.8515 11.8717 22.5163ZM29.0529 20.2354C29.554 18.8157 29.8003 17.3237 29.7917 15.7596L17.4454 28.1313C17.7937 28.3129 18.1875 28.5058 18.6267 28.71C19.0658 28.9139 19.4649 29.0768 19.8238 29.1988C21.2938 28.7543 22.6297 28.1063 23.8317 27.2546C25.0336 26.4032 26.079 25.3754 26.9679 24.1712C27.8568 22.9674 28.5518 21.6554 29.0529 20.2354ZM1.89125 15.8333C1.89125 19.7117 3.25069 23.0097 5.96958 25.7275C8.68847 28.4456 11.9978 29.8003 15.8975 29.7917C16.0044 29.7917 16.1167 29.7862 16.2342 29.7754L16.5867 29.7437C14.0908 28.3932 12.0781 26.4968 10.5483 24.0546C9.01833 21.6121 8.25333 18.8717 8.25333 15.8333C8.25333 12.795 9.02528 10.0546 10.5692 7.61208C12.1128 5.16986 14.1325 3.27347 16.6283 1.92292L16.2758 1.89125C16.1583 1.88042 16.0407 1.875 15.9229 1.875C12.034 1.86639 8.7232 3.2168 5.99042 5.92625C3.25764 8.63569 1.89125 11.9381 1.89125 15.8333ZM15.7821 27.0771L29.5575 13.3175C29.4081 12.5481 29.2046 11.8092 28.9471 11.1008C28.6896 10.3925 28.376 9.70611 28.0063 9.04167L12.9104 24.1379C13.4701 24.8685 13.9364 25.4149 14.3092 25.7771C14.6822 26.1393 15.1732 26.5726 15.7821 27.0771ZM9.66208 30.4183C7.73569 29.5861 6.05986 28.4574 4.63458 27.0321C3.20931 25.6068 2.08056 23.931 1.24833 22.0046C0.416111 20.0785 0 18.0214 0 15.8333C0 13.6453 0.416111 11.5882 1.24833 9.66208C2.08056 7.73569 3.20931 6.05986 4.63458 4.63458C6.05986 3.2093 7.73569 2.08056 9.66208 1.24833C11.5882 0.416112 13.6453 0 15.8333 0C18.0214 0 20.0785 0.416112 22.0046 1.24833C23.931 2.08056 25.6068 3.2093 27.0321 4.63458C28.4574 6.05986 29.5861 7.73569 30.4183 9.66208C31.2506 11.5882 31.6667 13.6453 31.6667 15.8333C31.6667 18.0214 31.2506 20.0785 30.4183 22.0046C29.5861 23.931 28.4574 25.6068 27.0321 27.0321C25.6068 28.4574 23.931 29.5861 22.0046 30.4183C20.0785 31.2506 18.0214 31.6667 15.8333 31.6667C13.6453 31.6667 11.5882 31.2506 9.66208 30.4183ZM10.1283 15.8654L22.4167 3.53542C22.03 3.32597 21.6432 3.13847 21.2563 2.97292C20.8696 2.80736 20.4636 2.65833 20.0383 2.52583C17.1153 3.40833 14.7301 5.07389 12.8829 7.5225C11.0357 9.97111 10.1175 12.7521 10.1283 15.8654Z" fill="white"/>
</svg>