<svg xmlns="http://www.w3.org/2000/svg" width="29" height="29" viewBox="0 0 29 29" fill="none">
  <path d="M8.5 19.1504L3.51625 14.1667L8.5 9.18292L9.81708 10.5417L6.19208 14.1667L9.81708 17.7917L8.5 19.1504ZM19.8333 19.1504L18.5163 17.7917L22.1413 14.1667L18.5163 10.5417L19.8333 9.18292L24.8171 14.1667L19.8333 19.1504ZM2.40375 28.3333C1.75014 28.3333 1.18611 28.0961 0.711667 27.6217C0.237222 27.1472 0 26.5832 0 25.9296V19.4038H1.89125V25.9296C1.89125 26.0576 1.94458 26.1751 2.05125 26.2821C2.15819 26.3888 2.27569 26.4421 2.40375 26.4421H8.92958V28.3333H2.40375ZM19.4038 28.3333V26.4421H25.9296C26.0576 26.4421 26.1751 26.3888 26.2821 26.2821C26.3888 26.1751 26.4421 26.0576 26.4421 25.9296V19.4038H28.3333V25.9296C28.3333 26.5832 28.0961 27.1472 27.6217 27.6217C27.1472 28.0961 26.5832 28.3333 25.9296 28.3333H19.4038ZM0 8.92958V2.40375C0 1.75014 0.237222 1.18611 0.711667 0.711667C1.18611 0.237223 1.75014 0 2.40375 0H8.92958V1.89125H2.40375C2.27569 1.89125 2.15819 1.94458 2.05125 2.05125C1.94458 2.15819 1.89125 2.27569 1.89125 2.40375V8.92958H0ZM26.4421 8.92958V2.40375C26.4421 2.27569 26.3888 2.15819 26.2821 2.05125C26.1751 1.94458 26.0576 1.89125 25.9296 1.89125H19.4038V0H25.9296C26.5832 0 27.1472 0.237223 27.6217 0.711667C28.0961 1.18611 28.3333 1.75014 28.3333 2.40375V8.92958H26.4421Z" fill="white"/>
</svg>